<svg width="48" height="11" viewBox="0 0 48 11" fill="none" xmlns="http://www.w3.org/2000/svg">
<path d="M1.336 11C0.888 11 0.664 10.776 0.664 10.328V0.823999C0.664 0.375999 0.888 0.151999 1.336 0.151999C1.62933 0.151999 1.87467 0.296 2.072 0.584L5.848 6.264L5.56 6.312L9.368 0.584C9.54933 0.296 9.82133 0.151999 10.184 0.151999C10.5467 0.151999 10.728 0.375999 10.728 0.823999V10.328C10.728 10.776 10.504 11 10.056 11C9.608 11 9.384 10.776 9.384 10.328V2.168L9.8 2.312L6.44 7.256C6.24267 7.544 5.97067 7.688 5.624 7.688C5.384 7.688 5.16533 7.544 4.968 7.256L1.608 2.312L2.008 2.424V10.328C2.008 10.776 1.784 11 1.336 11ZM20.6466 2.888C21.0946 2.888 21.3186 3.112 21.3186 3.56V10.328C21.3186 10.776 21.0946 11 20.6466 11C20.1986 11 19.9746 10.776 19.9746 10.328V10.064C19.4093 10.688 18.5773 11 17.4786 11H17.0306C15.964 11 15.1746 10.744 14.6626 10.232C14.1506 9.72 13.8946 8.93067 13.8946 7.864V3.56C13.8946 3.112 14.1186 2.888 14.5666 2.888C15.0146 2.888 15.2386 3.112 15.2386 3.56V7.864C15.2386 8.56267 15.364 9.03733 15.6146 9.288C15.8706 9.53333 16.3426 9.656 17.0306 9.656H17.4786C18.1186 9.656 18.676 9.584 19.1506 9.44C19.6253 9.29067 19.9 9.05867 19.9746 8.744V3.56C19.9746 3.112 20.1986 2.888 20.6466 2.888ZM25.3204 11C24.8724 11 24.6484 10.776 24.6484 10.328V0.823999C24.6484 0.375999 24.8724 0.151999 25.3204 0.151999H29.0644C30.0404 0.151999 30.787 0.413333 31.3044 0.936C31.827 1.45333 32.0884 2.2 32.0884 3.176V3.656C32.0884 4.632 31.827 5.38133 31.3044 5.904C30.787 6.42133 30.0404 6.68 29.0644 6.68H25.9924V10.328C25.9924 10.776 25.7684 11 25.3204 11ZM25.9924 5.336H29.0644C29.6724 5.336 30.1044 5.208 30.3604 4.952C30.6164 4.696 30.7444 4.264 30.7444 3.656V3.176C30.7444 2.57333 30.6164 2.144 30.3604 1.888C30.1044 1.62667 29.6724 1.496 29.0644 1.496H25.9924V5.336ZM34.8204 11C34.3724 11 34.1484 10.776 34.1484 10.328V3.56C34.1484 3.112 34.3724 2.888 34.8204 2.888C35.2684 2.888 35.4924 3.112 35.4924 3.56V4.184C35.807 3.75733 36.207 3.43467 36.6924 3.216C37.183 2.99733 37.743 2.888 38.3724 2.888C38.8204 2.888 39.0444 3.112 39.0444 3.56C39.0444 4.008 38.8204 4.232 38.3724 4.232C37.4497 4.232 36.7457 4.40267 36.2604 4.744C35.775 5.08533 35.519 5.536 35.4924 6.096V10.328C35.4924 10.776 35.2684 11 34.8204 11ZM43.416 11C42.3547 11 41.5653 10.744 41.048 10.232C40.536 9.72 40.28 8.936 40.28 7.88V6.024C40.28 4.952 40.536 4.16267 41.048 3.656C41.5653 3.144 42.3547 2.888 43.416 2.888H44.728C45.7947 2.888 46.584 3.144 47.096 3.656C47.608 4.168 47.864 4.95733 47.864 6.024V7.864C47.864 8.92533 47.608 9.71467 47.096 10.232C46.584 10.744 45.7947 11 44.728 11H43.416ZM41.624 7.88C41.624 8.568 41.7493 9.03733 42 9.288C42.2507 9.53333 42.7227 9.656 43.416 9.656H44.728C45.4267 9.656 45.8987 9.53067 46.144 9.28C46.3947 9.02933 46.52 8.55733 46.52 7.864V6.024C46.52 5.32533 46.3947 4.85333 46.144 4.608C45.8987 4.35733 45.4267 4.232 44.728 4.232H43.416C42.952 4.232 42.5893 4.28533 42.328 4.392C42.072 4.49333 41.8907 4.67467 41.784 4.936C41.6773 5.192 41.624 5.55467 41.624 6.024V7.88Z" fill="#6610F2"/>
</svg>
